<svg width="26" height="26" viewBox="0 0 26 26" fill="none" xmlns="http://www.w3.org/2000/svg">
<path d="M13.375 15.1453C20.275 15.1453 25.875 17.7619 25.875 20.9786V25.1453H0.875V20.9786C0.875 17.7619 6.475 15.1453 13.375 15.1453ZM24.2083 20.9786C24.2083 18.6786 19.3583 16.8119 13.375 16.8119C7.39167 16.8119 2.54167 18.6786 2.54167 20.9786V23.4786H24.2083V20.9786ZM13.375 0.145264C14.9221 0.145264 16.4058 0.759846 17.4998 1.85381C18.5938 2.94777 19.2083 4.4315 19.2083 5.9786C19.2083 7.52569 18.5938 9.00942 17.4998 10.1034C16.4058 11.1973 14.9221 11.8119 13.375 11.8119C11.8279 11.8119 10.3442 11.1973 9.25021 10.1034C8.15625 9.00942 7.54167 7.52569 7.54167 5.9786C7.54167 4.4315 8.15625 2.94777 9.25021 1.85381C10.3442 0.759846 11.8279 0.145264 13.375 0.145264ZM13.375 1.81193C12.2699 1.81193 11.2101 2.25092 10.4287 3.03232C9.64732 3.81372 9.20833 4.87353 9.20833 5.9786C9.20833 7.08367 9.64732 8.14347 10.4287 8.92488C11.2101 9.70628 12.2699 10.1453 13.375 10.1453C14.4801 10.1453 15.5399 9.70628 16.3213 8.92488C17.1027 8.14347 17.5417 7.08367 17.5417 5.9786C17.5417 4.87353 17.1027 3.81372 16.3213 3.03232C15.5399 2.25092 14.4801 1.81193 13.375 1.81193Z" fill="#161515"/>
</svg>
