<svg width="32" height="33" viewBox="0 0 32 33" fill="none" xmlns="http://www.w3.org/2000/svg">
<path d="M2.18334 5.02005H27.5402C29.8369 5.02005 31.4953 7.13674 30.8653 9.26676L28.1086 18.6002C27.6836 20.0335 26.3269 21.0202 24.7835 21.0202H9.52007C7.97506 21.0202 6.61671 20.0318 6.19338 18.6002L2.18334 5.02005ZM2.18334 5.02005L1 1.02002M23.5002 31.0203C24.1632 31.0203 24.7991 30.7569 25.268 30.288C25.7368 29.8192 26.0002 29.1833 26.0002 28.5203C26.0002 27.8572 25.7368 27.2213 25.268 26.7525C24.7991 26.2836 24.1632 26.0202 23.5002 26.0202C22.8371 26.0202 22.2013 26.2836 21.7324 26.7525C21.2636 27.2213 21.0002 27.8572 21.0002 28.5203C21.0002 29.1833 21.2636 29.8192 21.7324 30.288C22.2013 30.7569 22.8371 31.0203 23.5002 31.0203ZM10.1667 31.0203C10.8298 31.0203 11.4657 30.7569 11.9345 30.288C12.4034 29.8192 12.6668 29.1833 12.6668 28.5203C12.6668 27.8572 12.4034 27.2213 11.9345 26.7525C11.4657 26.2836 10.8298 26.0202 10.1667 26.0202C9.5037 26.0202 8.86781 26.2836 8.39896 26.7525C7.93012 27.2213 7.66672 27.8572 7.66672 28.5203C7.66672 29.1833 7.93012 29.8192 8.39896 30.288C8.86781 30.7569 9.5037 31.0203 10.1667 31.0203Z" stroke="black" stroke-width="2" stroke-linecap="round" stroke-linejoin="round"/>
</svg>
