<svg width="81" height="80" viewBox="0 0 81 80" fill="none" xmlns="http://www.w3.org/2000/svg">
<path d="M73.832 10V7.5C74.4951 7.5 75.131 7.76339 75.5998 8.23223C76.0686 8.70107 76.332 9.33696 76.332 10H73.832ZM37.1654 10H34.6654C34.6654 9.33696 34.9288 8.70107 35.3976 8.23223C35.8664 7.76339 36.5023 7.5 37.1654 7.5V10ZM37.1654 30V27.5C37.8284 27.5 38.4643 27.7634 38.9331 28.2322C39.402 28.7011 39.6654 29.337 39.6654 30H37.1654ZM73.832 12.5H37.1654V7.5H73.832V12.5ZM39.6654 10V63.3333H34.6654V10H39.6654ZM71.332 56.6667V10H76.332V56.6667H71.332ZM37.1654 32.5H20.4987V27.5H37.1654V32.5ZM9.66537 43.3333V56.6667H4.66537V43.3333H9.66537ZM34.6654 63.3333V30H39.6654V63.3333H34.6654ZM17.552 66.28C17.939 66.667 18.3983 66.974 18.9039 67.1835C19.4095 67.393 19.9514 67.5008 20.4987 67.5008C21.046 67.5008 21.5879 67.393 22.0935 67.1835C22.5991 66.974 23.0584 66.667 23.4454 66.28L26.9787 69.8133C25.2596 71.5323 22.9281 72.498 20.497 72.498C18.066 72.498 15.7344 71.5323 14.0154 69.8133L17.552 66.28ZM23.4454 60.3867C23.0584 59.9996 22.5991 59.6926 22.0935 59.4832C21.5879 59.2737 21.046 59.1659 20.4987 59.1659C19.9514 59.1659 19.4095 59.2737 18.9039 59.4832C18.3983 59.6926 17.939 59.9996 17.552 60.3867L14.0187 56.8533C15.7378 55.1343 18.0693 54.1686 20.5004 54.1686C22.9314 54.1686 25.263 55.1343 26.982 56.8533L23.4454 60.3867ZM57.552 66.28C57.939 66.667 58.3983 66.974 58.9039 67.1835C59.4095 67.393 59.9514 67.5008 60.4987 67.5008C61.046 67.5008 61.5879 67.393 62.0935 67.1835C62.5991 66.974 63.0584 66.667 63.4454 66.28L66.9787 69.8133C65.2596 71.5323 62.9281 72.498 60.497 72.498C58.066 72.498 55.7344 71.5323 54.0154 69.8133L57.552 66.28ZM63.4454 60.3867C63.0584 59.9996 62.5991 59.6926 62.0935 59.4832C61.5879 59.2737 61.046 59.1659 60.4987 59.1659C59.9514 59.1659 59.4095 59.2737 58.9039 59.4832C58.3983 59.6926 57.939 59.9996 57.552 60.3867L54.0187 56.8533C55.7378 55.1343 58.0693 54.1686 60.5004 54.1686C62.9314 54.1686 65.263 55.1343 66.982 56.8533L63.4454 60.3867ZM17.552 60.3867C16.7387 61.2 16.332 62.2633 16.332 63.3333H11.332C11.332 60.99 12.2287 58.64 14.0154 56.85L17.552 60.3867ZM16.332 63.3333C16.332 64.4033 16.7387 65.4667 17.552 66.28L14.0154 69.8133C13.1626 68.9636 12.4895 67.9536 12.0284 66.8415C11.5674 65.7295 11.3307 64.5372 11.332 63.3333H16.332ZM27.1654 60.8333H37.1654V65.8333H27.1654V60.8333ZM23.4454 66.28C23.8337 65.8941 24.1416 65.4349 24.351 64.9291C24.5604 64.4232 24.6673 63.8808 24.6654 63.3333H29.6654C29.6654 65.6767 28.7687 68.0267 26.982 69.8167L23.4454 66.28ZM24.6654 63.3333C24.6654 62.2633 24.2587 61.2 23.4454 60.3867L26.982 56.8533C27.8348 57.7031 28.5079 58.713 28.969 59.8251C29.43 60.9372 29.6667 62.1295 29.6654 63.3333H24.6654ZM63.4454 66.28C63.8337 65.8941 64.1416 65.4349 64.351 64.9291C64.5604 64.4232 64.6673 63.8808 64.6654 63.3333H69.6654C69.6654 65.6767 68.7687 68.0267 66.982 69.8167L63.4454 66.28ZM64.6654 63.3333C64.6654 62.2633 64.2587 61.2 63.4454 60.3867L66.9787 56.8533C67.8315 57.7031 68.5079 58.713 68.969 59.8251C69.43 60.9372 69.6667 62.1295 69.6654 63.3333H64.6654ZM37.1654 60.8333H53.832V65.8333H37.1654V60.8333ZM57.552 60.3867C56.7387 61.2 56.332 62.2633 56.332 63.3333H51.332C51.332 60.99 52.2287 58.64 54.0154 56.85L57.552 60.3867ZM56.332 63.3333C56.332 64.4033 56.7387 65.4667 57.552 66.28L54.0187 69.8133C53.1659 68.9636 52.4895 67.9536 52.0284 66.8415C51.5674 65.7295 51.3307 64.5372 51.332 63.3333H56.332ZM9.66537 56.6667C9.66537 58.9667 11.532 60.8333 13.832 60.8333V65.8333C11.4009 65.8333 9.06931 64.8676 7.35022 63.1485C5.63113 61.4294 4.66537 59.0978 4.66537 56.6667H9.66537ZM20.4987 32.5C17.6255 32.5 14.87 33.6414 12.8384 35.673C10.8067 37.7047 9.66537 40.4602 9.66537 43.3333H4.66537C4.66537 39.1341 6.33352 35.1068 9.30284 32.1375C12.2722 29.1681 16.2994 27.5 20.4987 27.5V32.5ZM76.332 56.6667C76.332 59.0978 75.3663 61.4294 73.6472 63.1485C71.9281 64.8676 69.5965 65.8333 67.1654 65.8333V60.8333C69.4654 60.8333 71.332 58.9667 71.332 56.6667H76.332Z" fill="black"/>
</svg>
