<svg width="41" height="41" viewBox="0 0 41 41" fill="none" xmlns="http://www.w3.org/2000/svg">
<rect x="0.225" y="0.475" width="40.05" height="40.05" rx="20.025" stroke="#161515" stroke-width="0.45"/>
<g clip-path="url(#clip0_25_760)">
<path d="M24.4688 9.25H16.0312C14.1664 9.25 12.378 9.99079 11.0594 11.3094C9.74079 12.628 9 14.4164 9 16.2812L9 24.7188C9 26.5836 9.74079 28.372 11.0594 29.6906C12.378 31.0092 14.1664 31.75 16.0312 31.75H24.4688C26.3336 31.75 28.122 31.0092 29.4406 29.6906C30.7592 28.372 31.5 26.5836 31.5 24.7188V16.2812C31.5 14.4164 30.7592 12.628 29.4406 11.3094C28.122 9.99079 26.3336 9.25 24.4688 9.25ZM29.3906 24.7188C29.3906 27.4328 27.1828 29.6406 24.4688 29.6406H16.0312C13.3172 29.6406 11.1094 27.4328 11.1094 24.7188V16.2812C11.1094 13.5672 13.3172 11.3594 16.0312 11.3594H24.4688C27.1828 11.3594 29.3906 13.5672 29.3906 16.2812V24.7188Z" fill="#161515"/>
<path d="M20.25 14.875C18.7582 14.875 17.3274 15.4676 16.2725 16.5225C15.2176 17.5774 14.625 19.0082 14.625 20.5C14.625 21.9918 15.2176 23.4226 16.2725 24.4775C17.3274 25.5324 18.7582 26.125 20.25 26.125C21.7418 26.125 23.1726 25.5324 24.2275 24.4775C25.2824 23.4226 25.875 21.9918 25.875 20.5C25.875 19.0082 25.2824 17.5774 24.2275 16.5225C23.1726 15.4676 21.7418 14.875 20.25 14.875ZM20.25 24.0156C19.3179 24.0145 18.4244 23.6438 17.7653 22.9847C17.1062 22.3256 16.7355 21.4321 16.7344 20.5C16.7344 18.5608 18.3122 16.9844 20.25 16.9844C22.1878 16.9844 23.7656 18.5608 23.7656 20.5C23.7656 22.4378 22.1878 24.0156 20.25 24.0156Z" fill="#161515"/>
<path d="M26.2967 15.2027C26.7106 15.2027 27.0462 14.8671 27.0462 14.4531C27.0462 14.0392 26.7106 13.7036 26.2967 13.7036C25.8827 13.7036 25.5471 14.0392 25.5471 14.4531C25.5471 14.8671 25.8827 15.2027 26.2967 15.2027Z" fill="#161515"/>
</g>
<defs>
<clipPath id="clip0_25_760">
<rect width="22.5" height="22.5" fill="white" transform="translate(9 9.25)"/>
</clipPath>
</defs>
</svg>
