<svg width="81" height="80" viewBox="0 0 81 80" fill="none" xmlns="http://www.w3.org/2000/svg">
<path d="M23.8333 6.66663H27.1667C28.0507 6.66663 28.8986 7.01782 29.5237 7.64294C30.1488 8.26806 30.5 9.1159 30.5 9.99996V13.3333H47.1667V9.99996C47.1667 9.1159 47.5179 8.26806 48.143 7.64294C48.7681 7.01782 49.6159 6.66663 50.5 6.66663H53.8333C54.7174 6.66663 55.5652 7.01782 56.1904 7.64294C56.8155 8.26806 57.1667 9.1159 57.1667 9.99996V13.3333C59.8188 13.3333 62.3624 14.3869 64.2377 16.2622C66.1131 18.1376 67.1667 20.6811 67.1667 23.3333V60C67.1667 62.6521 66.1131 65.1957 64.2377 67.071C62.3624 68.9464 59.8188 70 57.1667 70H20.5C17.8478 70 15.3043 68.9464 13.4289 67.071C11.5536 65.1957 10.5 62.6521 10.5 60V23.3333C10.5 20.6811 11.5536 18.1376 13.4289 16.2622C15.3043 14.3869 17.8478 13.3333 20.5 13.3333V9.99996C20.5 9.1159 20.8512 8.26806 21.4763 7.64294C22.1014 7.01782 22.9493 6.66663 23.8333 6.66663ZM50.5 13.3333H53.8333V9.99996H50.5V13.3333ZM27.1667 13.3333V9.99996H23.8333V13.3333H27.1667ZM20.5 16.6666C18.7319 16.6666 17.0362 17.369 15.786 18.6192C14.5357 19.8695 13.8333 21.5652 13.8333 23.3333V26.6666H63.8333V23.3333C63.8333 21.5652 63.131 19.8695 61.8807 18.6192C60.6305 17.369 58.9348 16.6666 57.1667 16.6666H20.5ZM13.8333 60C13.8333 61.7681 14.5357 63.4638 15.786 64.714C17.0362 65.9642 18.7319 66.6666 20.5 66.6666H57.1667C58.9348 66.6666 60.6305 65.9642 61.8807 64.714C63.131 63.4638 63.8333 61.7681 63.8333 60V30H13.8333V60ZM40.5 43.3333H57.1667V60H40.5V43.3333ZM43.8333 46.6666V56.6666H53.8333V46.6666H43.8333Z" fill="black"/>
</svg>
