<svg width="30" height="31" viewBox="0 0 30 31" fill="none" xmlns="http://www.w3.org/2000/svg">
<path d="M30 28.4511L21.62 20.0711C23.6338 17.6535 24.638 14.5526 24.4237 11.4135C24.2094 8.27439 22.7932 5.33873 20.4696 3.21722C18.146 1.09571 15.0939 -0.0482964 11.9483 0.0231778C8.80271 0.094652 5.80577 1.37611 3.58092 3.60096C1.35608 5.82582 0.074632 8.82278 0.00315823 11.9684C-0.0683156 15.114 1.07569 18.1661 3.19718 20.4897C5.31868 22.8133 8.25432 24.2296 11.3934 24.4438C14.5325 24.6581 17.6334 23.6539 20.051 21.6401L28.431 30.0202L30 28.4511ZM2.25896 12.2658C2.25896 10.2906 2.84468 8.35977 3.94204 6.71744C5.0394 5.07511 6.59912 3.79508 8.42396 3.0392C10.2488 2.28332 12.2568 2.08555 14.1941 2.47089C16.1313 2.85623 17.9108 3.80739 19.3075 5.20407C20.7041 6.60075 21.6553 8.38024 22.0406 10.3175C22.426 12.2547 22.2282 14.2628 21.4723 16.0876C20.7164 17.9125 19.4364 19.4722 17.7941 20.5696C16.1518 21.6669 14.2209 22.2527 12.2457 22.2527C9.59798 22.2497 7.05951 21.1966 5.18727 19.3243C3.31502 17.4521 2.2619 14.9136 2.25896 12.2658Z" fill="#161515"/>
</svg>
