<svg width="223" height="55" viewBox="0 0 223 55" fill="none" xmlns="http://www.w3.org/2000/svg">
<path d="M22.9749 0.0643921C21.4768 0.20192 20.1801 0.447502 18.4316 0.923935C17.9109 1.06637 16.3245 1.64104 15.7302 1.90627C15.406 2.04871 13.7704 2.85913 13.515 3.00157C12.3706 3.645 10.7448 4.76485 9.72319 5.61948C8.74576 6.43973 7.26244 7.93288 6.4029 8.96924C5.92647 9.53899 5.1406 10.5852 4.76732 11.1451C4.43824 11.6412 3.9176 12.4663 3.9176 12.4958C3.9176 12.5056 3.85866 12.6088 3.7899 12.7168C3.54431 13.1049 2.88124 14.3868 2.60619 14.9958C2.52269 15.1825 2.39498 15.4674 2.32131 15.6245C2.04135 16.2434 1.53053 17.6383 1.28495 18.4586C0.936221 19.603 0.75449 20.3201 0.553111 21.3564C0.513818 21.5578 0.45979 21.8329 0.43032 21.9704C0.0668568 23.7877 -0.0952281 26.8379 0.0570334 28.8959C0.155267 30.2466 0.351733 31.7643 0.528553 32.6042C0.675903 33.3065 0.847811 34.0482 0.93131 34.3478C0.985338 34.5344 1.06884 34.8488 1.11795 35.0354C1.22601 35.4333 1.67297 36.7987 1.80559 37.1229C2.26728 38.282 2.47357 38.7486 2.86159 39.5542C4.85573 43.6554 7.74379 47.0886 11.3833 49.682C11.791 49.9718 13.1319 50.8264 13.181 50.8264C13.1908 50.8264 13.294 50.8854 13.4118 50.959C13.7655 51.1801 15.1653 51.8775 15.7056 52.0985C15.9905 52.2164 16.3097 52.349 16.4178 52.3982C17.3166 52.8009 18.9866 53.2921 20.5681 53.6212C22.7047 54.073 25.5633 54.1664 27.9111 53.8667C32.0663 53.3363 36.089 51.6663 39.4387 49.0779C42.3759 46.8038 44.6156 44.1809 46.5508 40.733C47.3662 39.284 48.3387 36.9362 48.8298 35.2319C48.8986 34.9863 48.9772 34.7211 49.0018 34.6425C49.046 34.5001 49.2572 33.6356 49.3505 33.2181C49.6157 32.0442 49.822 30.5756 49.9399 29.0923C50.0823 27.3487 49.9595 24.161 49.6992 22.7072C49.6747 22.5696 49.6255 22.2946 49.5961 22.0932C49.5617 21.8918 49.4929 21.5136 49.4389 21.2582C49.3849 21.0028 49.321 20.7032 49.3014 20.5951C49.2621 20.3594 48.9772 19.2592 48.879 18.9497C48.098 16.4546 47.3711 14.7306 46.3396 12.9231C45.8141 12.0096 45.3573 11.2974 44.7335 10.4378C43.9968 9.42602 43.9673 9.38673 43.3681 8.68927C41.9879 7.07333 40.3671 5.59002 38.6922 4.40139C38.0586 3.95443 36.8601 3.1833 36.7963 3.1833C36.7815 3.1833 36.7079 3.144 36.6391 3.08998C36.3444 2.88369 34.7825 2.12238 33.8051 1.70489C33.0929 1.40036 31.7569 0.963226 30.8482 0.73238C29.3748 0.359093 28.4415 0.197006 26.9533 0.0643921C26.0299 -0.0240173 23.9081 -0.019104 22.9749 0.0643921ZM20.298 18.7975C22.2676 20.772 23.8884 22.3781 23.8982 22.3683C23.9081 22.3584 23.913 21.0126 23.9081 19.377C23.9032 16.2925 23.9032 16.2729 24.1045 15.8308C24.1684 15.6884 24.6301 14.5243 24.6645 14.4114C24.6939 14.3229 24.6988 14.3229 24.7922 14.4064C24.8462 14.4556 24.8904 14.5194 24.8904 14.544C24.8904 14.5734 25.0476 14.9811 25.2342 15.4526L25.578 16.3122V19.323C25.578 20.9832 25.5977 22.3388 25.6173 22.3388C25.6419 22.3388 25.8433 22.1472 26.0741 21.9066C26.3 21.6708 27.0614 20.88 27.7637 20.1531C28.4661 19.4213 29.5417 18.3112 30.1459 17.6825C30.7549 17.0489 31.5506 16.2287 31.9141 15.8505L32.5772 15.1678L33.4514 14.7257C33.9279 14.485 34.3454 14.2837 34.3699 14.2837C34.3994 14.2837 34.419 14.318 34.419 14.3573C34.419 14.3966 34.3994 14.431 34.3797 14.431C34.3404 14.431 34.2962 14.5194 34.0212 15.1678C33.8689 15.5361 33.7952 15.6982 33.5693 16.1992C33.5005 16.3466 33.3385 16.5774 33.2108 16.7149C33.0831 16.8475 32.6852 17.2601 32.3316 17.6236C31.9779 17.987 30.9416 19.0725 30.0231 20.0303C29.1046 20.9881 27.7293 22.4174 26.968 23.2131L25.578 24.6522V26.3221C25.578 27.2357 25.5977 27.9872 25.6173 27.9872C25.6419 27.9872 25.7254 27.9135 25.804 27.8251C25.9317 27.6778 30.7255 22.8054 33.7019 19.7945C34.4043 19.0873 35.0084 18.5077 35.0428 18.5077C35.0968 18.5077 35.1067 20.7818 35.1067 31.3959V44.2841L34.7678 45.1093C34.5811 45.566 34.4141 45.9835 34.3994 46.0326C34.3454 46.1996 34.252 46.0376 33.9082 45.1731L33.584 44.3578V33.3213C33.584 24.3182 33.5742 22.2897 33.5202 22.2897C33.4858 22.2897 33.2599 22.496 33.0192 22.7415C32.6017 23.1836 30.0869 25.7278 27.0417 28.7976L25.578 30.276L25.5731 34.8635C25.5682 37.3881 25.5535 40.5611 25.5338 41.9118L25.4994 44.3676L25.3619 44.6868C25.2882 44.8637 25.2047 45.0503 25.1802 45.1043C25.1556 45.1584 25.0721 45.3794 24.9886 45.5955C24.8118 46.0523 24.7136 46.18 24.6645 46.0326C24.6497 45.9835 24.4778 45.5611 24.2912 45.1043L23.9474 44.2694L23.9228 34.446L23.8982 24.6227L19.8117 20.5215C17.2479 17.9527 15.6909 16.3564 15.6417 16.2483C15.6024 16.155 15.4747 15.8554 15.3618 15.5852C15.2488 15.3151 15.1015 14.9713 15.0327 14.8239C14.8559 14.4359 14.8264 14.3475 14.8559 14.3131C14.8706 14.2984 15.293 14.4949 15.7989 14.7503L16.7125 15.2169L20.298 18.7975Z" fill="black"/>
<path d="M63.4 26.14L58.8 15.4C58.6667 15.0667 58.54 14.72 58.42 14.36C58.3 14 58.24 13.7134 58.24 13.5C58.0267 13.5134 57.8267 13.5267 57.64 13.54C57.4667 13.54 57.3067 13.5467 57.16 13.56V12.02H63.06V13.34C62.5667 13.3267 62.1867 13.4334 61.92 13.66C61.6667 13.8867 61.66 14.2934 61.9 14.88C62.2067 15.6267 62.5133 16.38 62.82 17.14C63.1267 17.9 63.4333 18.6534 63.74 19.4C63.9667 19.96 64.16 20.4534 64.32 20.88C64.48 21.2934 64.6667 21.7534 64.88 22.26H64.9C65.0467 21.86 65.2 21.4134 65.36 20.92C65.5333 20.4267 65.7 19.9534 65.86 19.5C66.0333 19.0334 66.2 18.5667 66.36 18.1C66.5333 17.6334 66.7067 17.1734 66.88 16.72C67.0533 16.2534 67.22 15.7867 67.38 15.32C67.4467 15.0934 67.5533 14.7867 67.7 14.4C67.86 14.0134 68.0267 13.7134 68.2 13.5C67.9867 13.5134 67.7133 13.5267 67.38 13.54C67.0467 13.54 66.8067 13.5467 66.66 13.56V12.02H71.16V13.34C70.7067 13.3534 70.3133 13.52 69.98 13.84C69.6467 14.16 69.3333 14.7067 69.04 15.48C68.8133 16.0667 68.5867 16.66 68.36 17.26C68.1467 17.8467 67.9267 18.44 67.7 19.04C67.4867 19.6267 67.2667 20.22 67.04 20.82C66.8133 21.4067 66.5867 22 66.36 22.6C66.1467 23.1867 65.9267 23.7734 65.7 24.36C65.4867 24.9467 65.2667 25.54 65.04 26.14H63.4ZM70.2972 26.02V24.64C70.6705 24.64 70.9705 24.5334 71.1972 24.32C71.4239 24.1067 71.6105 23.8267 71.7572 23.48C71.9172 23.1334 72.0705 22.76 72.2172 22.36L76.1172 11.66H77.5172L81.7772 22.56C81.8572 22.76 81.9639 23.0667 82.0972 23.48C82.2305 23.88 82.3105 24.2334 82.3372 24.54C82.5639 24.5134 82.7772 24.5 82.9772 24.5C83.1905 24.4867 83.3639 24.48 83.4972 24.48V26.02H78.1172V24.7C78.4905 24.7 78.7439 24.6267 78.8772 24.48C79.0239 24.32 79.0905 24.1067 79.0772 23.84C79.0639 23.5734 78.9905 23.2734 78.8572 22.94L78.4572 21.84L74.1172 21.92L73.7972 22.86C73.7305 23.0334 73.6305 23.2934 73.4972 23.64C73.3772 23.9734 73.2639 24.2534 73.1572 24.48C73.3705 24.4534 73.6239 24.44 73.9172 24.44C74.2239 24.4267 74.4439 24.42 74.5772 24.42V26.02H70.2972ZM74.6172 20.42H77.9572L77.0372 17.92C76.8639 17.44 76.7105 16.96 76.5772 16.48C76.4439 15.9867 76.3439 15.5534 76.2772 15.18H76.2572C76.2039 15.4067 76.1239 15.7467 76.0172 16.2C75.9105 16.6534 75.7439 17.1934 75.5172 17.82L74.6172 20.42ZM93.2566 16.5C93.1366 15.7534 92.9232 15.1334 92.6166 14.64C92.3099 14.1334 91.9166 13.7534 91.4366 13.5C90.9699 13.2467 90.4232 13.1267 89.7966 13.14C89.2232 13.14 88.7166 13.3 88.2766 13.62C87.8499 13.94 87.6366 14.3534 87.6366 14.86C87.6366 15.2734 87.7499 15.6334 87.9766 15.94C88.2166 16.2467 88.5766 16.5334 89.0566 16.8C89.5366 17.0667 90.1432 17.3534 90.8766 17.66C91.3832 17.86 91.9032 18.0934 92.4366 18.36C92.9699 18.6267 93.4632 18.9467 93.9166 19.32C94.3699 19.68 94.7366 20.1067 95.0166 20.6C95.2966 21.08 95.4366 21.6467 95.4366 22.3C95.4366 23.0867 95.2232 23.7867 94.7966 24.4C94.3699 25.0134 93.7699 25.4934 92.9966 25.84C92.2366 26.1734 91.3432 26.34 90.3166 26.34C89.7832 26.34 89.2032 26.2534 88.5766 26.08C87.9632 25.92 87.3832 25.68 86.8366 25.36L86.8966 26.2H85.3566V21.52H86.6766C86.8632 22.64 87.2899 23.4867 87.9566 24.06C88.6366 24.62 89.4432 24.9 90.3766 24.9C90.8566 24.9 91.2766 24.8134 91.6366 24.64C91.9966 24.4667 92.2766 24.24 92.4766 23.96C92.6766 23.6667 92.7766 23.3534 92.7766 23.02C92.7766 22.5534 92.6099 22.1667 92.2766 21.86C91.9566 21.5534 91.5499 21.2934 91.0566 21.08C90.5766 20.8667 90.0832 20.66 89.5766 20.46C88.9366 20.1934 88.3366 19.9134 87.7766 19.62C87.2299 19.3134 86.7499 18.9667 86.3366 18.58C85.9232 18.1934 85.6032 17.7534 85.3766 17.26C85.1499 16.7534 85.0366 16.1734 85.0366 15.52C85.0366 15.1067 85.1166 14.68 85.2766 14.24C85.4366 13.7867 85.6966 13.3734 86.0566 13C86.4166 12.6134 86.8966 12.3 87.4966 12.06C88.0966 11.82 88.8366 11.7 89.7166 11.7C90.2499 11.7 90.8299 11.78 91.4566 11.94C92.0966 12.1 92.6432 12.34 93.0966 12.66L93.0166 11.84H94.5766V16.5H93.2566ZM108.07 16.54C108.07 15.82 107.97 15.2267 107.77 14.76C107.57 14.28 107.283 13.9267 106.91 13.7C106.55 13.46 106.116 13.3467 105.61 13.36H104.65V22.74C104.65 23.1 104.643 23.4467 104.63 23.78C104.616 24.1134 104.596 24.3667 104.57 24.54C104.796 24.5134 105.083 24.5 105.43 24.5C105.79 24.4867 106.036 24.48 106.17 24.48V26.02H100.33V24.7C100.636 24.6867 100.89 24.6467 101.09 24.58C101.303 24.5134 101.463 24.36 101.57 24.12C101.69 23.88 101.75 23.4934 101.75 22.96V13.38H100.83C100.07 13.3934 99.4697 13.6534 99.0297 14.16C98.5897 14.6667 98.3697 15.46 98.3697 16.54H97.0497L97.1497 12.02H109.27L109.39 16.54H108.07ZM111.338 26.02V24.7C111.644 24.6867 111.898 24.6467 112.098 24.58C112.311 24.5134 112.471 24.36 112.578 24.12C112.698 23.88 112.758 23.4934 112.758 22.96V15.3C112.758 14.94 112.764 14.5934 112.778 14.26C112.804 13.9267 112.824 13.6734 112.838 13.5C112.624 13.5134 112.358 13.5267 112.038 13.54C111.718 13.54 111.484 13.5467 111.338 13.56V12.02C112.284 12.0067 113.231 12 114.178 12C115.124 12 116.071 11.9934 117.018 11.98C118.191 11.9667 119.211 12.1 120.078 12.38C120.944 12.66 121.611 13.1134 122.078 13.74C122.544 14.3667 122.764 15.2134 122.738 16.28C122.724 16.84 122.584 17.3734 122.318 17.88C122.064 18.3867 121.678 18.8334 121.158 19.22C120.651 19.6067 120.004 19.9134 119.218 20.14C119.471 20.2467 119.718 20.42 119.958 20.66C120.211 20.9 120.424 21.1534 120.598 21.42L121.538 22.82C121.831 23.2734 122.091 23.6334 122.318 23.9C122.544 24.1667 122.771 24.3667 122.998 24.5C123.224 24.62 123.484 24.6867 123.778 24.7V26.02H120.478C120.238 25.8467 119.998 25.6 119.758 25.28C119.531 24.9467 119.284 24.5667 119.018 24.14L117.538 21.74C117.364 21.4734 117.211 21.2467 117.078 21.06C116.958 20.8734 116.831 20.7134 116.698 20.58C116.484 20.58 116.304 20.58 116.158 20.58C116.011 20.58 115.844 20.58 115.658 20.58V22.72C115.658 23.0934 115.651 23.4467 115.638 23.78C115.624 24.1134 115.604 24.3667 115.578 24.54C115.724 24.5267 115.911 24.52 116.138 24.52C116.364 24.5067 116.584 24.5 116.798 24.5C117.024 24.4867 117.184 24.48 117.278 24.48V26.02H111.338ZM116.618 19.14C117.364 19.14 117.964 19.0334 118.418 18.82C118.871 18.5934 119.198 18.26 119.398 17.82C119.611 17.3667 119.718 16.8 119.718 16.12C119.718 15.48 119.618 14.98 119.418 14.62C119.218 14.2467 118.964 13.9734 118.658 13.8C118.364 13.6134 118.064 13.5 117.758 13.46C117.451 13.4067 117.198 13.38 116.998 13.38C116.718 13.38 116.478 13.4134 116.278 13.48C116.078 13.5467 115.924 13.6934 115.818 13.92C115.711 14.1467 115.658 14.4934 115.658 14.96V19.06C115.804 19.0734 115.958 19.0934 116.118 19.12C116.278 19.1334 116.444 19.14 116.618 19.14ZM124.728 26.02V24.64C125.102 24.64 125.402 24.5334 125.628 24.32C125.855 24.1067 126.042 23.8267 126.188 23.48C126.348 23.1334 126.502 22.76 126.648 22.36L130.548 11.66H131.948L136.208 22.56C136.288 22.76 136.395 23.0667 136.528 23.48C136.662 23.88 136.742 24.2334 136.768 24.54C136.995 24.5134 137.208 24.5 137.408 24.5C137.622 24.4867 137.795 24.48 137.928 24.48V26.02H132.548V24.7C132.922 24.7 133.175 24.6267 133.308 24.48C133.455 24.32 133.522 24.1067 133.508 23.84C133.495 23.5734 133.422 23.2734 133.288 22.94L132.888 21.84L128.548 21.92L128.228 22.86C128.162 23.0334 128.062 23.2934 127.928 23.64C127.808 23.9734 127.695 24.2534 127.588 24.48C127.802 24.4534 128.055 24.44 128.348 24.44C128.655 24.4267 128.875 24.42 129.008 24.42V26.02H124.728ZM129.048 20.42H132.388L131.468 17.92C131.295 17.44 131.142 16.96 131.008 16.48C130.875 15.9867 130.775 15.5534 130.708 15.18H130.688C130.635 15.4067 130.555 15.7467 130.448 16.2C130.342 16.6534 130.175 17.1934 129.948 17.82L129.048 20.42ZM139.608 26.02V24.7C139.914 24.6867 140.168 24.6467 140.368 24.58C140.581 24.5134 140.741 24.36 140.848 24.12C140.968 23.88 141.028 23.4934 141.028 22.96V15.3C141.028 14.94 141.034 14.5934 141.048 14.26C141.074 13.9267 141.094 13.6734 141.108 13.5C140.894 13.5134 140.628 13.5267 140.308 13.54C139.988 13.54 139.754 13.5467 139.608 13.56V12.02H145.348V13.34C145.054 13.3534 144.801 13.3934 144.588 13.46C144.374 13.5267 144.208 13.68 144.088 13.92C143.981 14.1467 143.928 14.5334 143.928 15.08V18.2H149.428V15.3C149.428 14.94 149.434 14.5934 149.448 14.26C149.461 13.9267 149.481 13.6734 149.508 13.5C149.294 13.5134 149.028 13.5267 148.708 13.54C148.388 13.54 148.154 13.5467 148.008 13.56V12.02H153.748V13.34C153.454 13.3534 153.201 13.3934 152.988 13.46C152.774 13.5267 152.608 13.68 152.488 13.92C152.381 14.1467 152.328 14.5334 152.328 15.08V22.74C152.328 23.1 152.321 23.4467 152.308 23.78C152.294 24.1134 152.274 24.3667 152.248 24.54C152.461 24.5134 152.728 24.5 153.048 24.5C153.381 24.4867 153.614 24.48 153.748 24.48V26.02H148.008V24.7C148.314 24.6867 148.568 24.6467 148.768 24.58C148.981 24.5134 149.141 24.36 149.248 24.12C149.368 23.88 149.428 23.4934 149.428 22.96V19.72L143.928 19.78V22.74C143.928 23.1 143.921 23.4467 143.908 23.78C143.894 24.1134 143.874 24.3667 143.848 24.54C144.061 24.5134 144.328 24.5 144.648 24.5C144.981 24.4867 145.214 24.48 145.348 24.48V26.02H139.608ZM161.601 13.34C161.307 13.3534 161.054 13.3934 160.841 13.46C160.627 13.5267 160.461 13.68 160.341 13.92C160.234 14.1467 160.181 14.5334 160.181 15.08V20.58C160.181 21.42 160.267 22.1134 160.441 22.66C160.627 23.1934 160.867 23.62 161.161 23.94C161.467 24.2467 161.807 24.4667 162.181 24.6C162.567 24.7334 162.961 24.8067 163.361 24.82C164.094 24.8467 164.721 24.7067 165.241 24.4C165.761 24.0934 166.161 23.62 166.441 22.98C166.721 22.34 166.861 21.5267 166.861 20.54V15.3C166.861 14.94 166.867 14.5934 166.881 14.26C166.894 13.9267 166.914 13.6734 166.941 13.5C166.727 13.5134 166.454 13.5267 166.121 13.54C165.801 13.54 165.567 13.5467 165.421 13.56V12.02H170.061V13.34C169.767 13.3534 169.514 13.3934 169.301 13.46C169.087 13.5267 168.921 13.68 168.801 13.92C168.694 14.1467 168.641 14.5334 168.641 15.08V20.08C168.641 21.2267 168.501 22.2 168.221 23C167.941 23.8 167.547 24.4467 167.041 24.94C166.534 25.4334 165.941 25.7934 165.261 26.02C164.581 26.2334 163.841 26.34 163.041 26.34C161.921 26.34 160.987 26.18 160.241 25.86C159.494 25.54 158.901 25.0934 158.461 24.52C158.034 23.9467 157.727 23.2867 157.541 22.54C157.367 21.7934 157.281 20.9934 157.281 20.14V15.3C157.281 14.94 157.287 14.5934 157.301 14.26C157.327 13.9267 157.347 13.6734 157.361 13.5C157.147 13.5134 156.881 13.5267 156.561 13.54C156.241 13.54 156.007 13.5467 155.861 13.56V12.02H161.601V13.34ZM172.136 26.02V24.7C172.443 24.6867 172.696 24.6467 172.896 24.58C173.109 24.5134 173.269 24.36 173.376 24.12C173.496 23.88 173.556 23.4934 173.556 22.96V15.3C173.556 14.94 173.563 14.5934 173.576 14.26C173.603 13.9267 173.623 13.6734 173.636 13.5C173.423 13.5134 173.156 13.5267 172.836 13.54C172.516 13.54 172.283 13.5467 172.136 13.56V12.02C173.056 12.0067 173.976 12 174.896 12C175.829 12 176.756 11.9934 177.676 11.98C179.276 11.9667 180.543 12.2667 181.476 12.88C182.423 13.48 182.863 14.3934 182.796 15.62C182.769 16.0067 182.649 16.3867 182.436 16.76C182.223 17.12 181.903 17.4467 181.476 17.74C181.063 18.0334 180.543 18.2667 179.916 18.44V18.46C181.249 18.6734 182.229 19.12 182.856 19.8C183.483 20.4667 183.796 21.2134 183.796 22.04C183.796 22.9067 183.583 23.64 183.156 24.24C182.743 24.8267 182.169 25.2734 181.436 25.58C180.703 25.8734 179.869 26.02 178.936 26.02H172.136ZM176.376 24.6C176.616 24.6 176.843 24.6 177.056 24.6C177.269 24.6 177.483 24.6 177.696 24.6C177.909 24.5867 178.116 24.58 178.316 24.58C179.129 24.54 179.723 24.28 180.096 23.8C180.469 23.32 180.656 22.7134 180.656 21.98C180.656 21.3667 180.529 20.8867 180.276 20.54C180.023 20.18 179.696 19.9267 179.296 19.78C178.909 19.6334 178.503 19.56 178.076 19.56C177.743 19.56 177.456 19.56 177.216 19.56C176.976 19.56 176.723 19.5667 176.456 19.58V22.84C176.456 23.2 176.449 23.54 176.436 23.86C176.423 24.18 176.403 24.4267 176.376 24.6ZM176.456 18.16L177.496 18.14C178.056 18.1267 178.496 18 178.816 17.76C179.149 17.52 179.383 17.2 179.516 16.8C179.663 16.3867 179.736 15.94 179.736 15.46C179.736 14.9267 179.629 14.5134 179.416 14.22C179.203 13.9134 178.936 13.6934 178.616 13.56C178.296 13.4267 177.963 13.3667 177.616 13.38C177.403 13.38 177.209 13.4134 177.036 13.48C176.863 13.5467 176.723 13.7 176.616 13.94C176.509 14.1667 176.456 14.54 176.456 15.06V18.16Z" fill="#161515"/>
<path d="M63.864 46.12L61.14 39.736C60.964 39.328 60.84 39 60.768 38.752C60.696 38.496 60.648 38.28 60.624 38.104C60.512 38.112 60.4 38.116 60.288 38.116C60.176 38.116 60.064 38.12 59.952 38.128V37.6H62.736L62.724 38.008C62.324 38.032 62.084 38.156 62.004 38.38C61.924 38.596 61.964 38.904 62.124 39.304C62.316 39.776 62.5 40.232 62.676 40.672C62.852 41.112 63.048 41.588 63.264 42.1C63.456 42.548 63.64 42.98 63.816 43.396C64 43.804 64.14 44.144 64.236 44.416H64.26C64.348 44.136 64.436 43.868 64.524 43.612C64.62 43.356 64.732 43.052 64.86 42.7C65.1 42.028 65.3 41.46 65.46 40.996C65.628 40.532 65.772 40.136 65.892 39.808C66.012 39.48 66.112 39.2 66.192 38.968C66.264 38.76 66.328 38.584 66.384 38.44C66.44 38.296 66.492 38.176 66.54 38.08C66.388 38.088 66.236 38.096 66.084 38.104C65.932 38.112 65.776 38.12 65.616 38.128V37.6H68.052V37.996C67.7 38.012 67.428 38.104 67.236 38.272C67.052 38.44 66.884 38.74 66.732 39.172C66.716 39.212 66.696 39.268 66.672 39.34C66.648 39.404 66.608 39.512 66.552 39.664C66.496 39.816 66.416 40.04 66.312 40.336C66.208 40.624 66.064 41.016 65.88 41.512C65.704 42.008 65.476 42.632 65.196 43.384C64.924 44.136 64.592 45.048 64.2 46.12H63.864ZM71.483 46V45.604C71.787 45.588 71.991 45.516 72.095 45.388C72.207 45.26 72.267 45.088 72.275 44.872C72.291 44.648 72.299 44.4 72.299 44.128L72.311 42.76L70.223 39.46C70.023 39.14 69.871 38.872 69.767 38.656C69.671 38.44 69.607 38.256 69.575 38.104C69.447 38.112 69.323 38.116 69.203 38.116C69.083 38.116 68.959 38.12 68.831 38.128V37.6H71.927V37.996C71.559 37.996 71.303 38.052 71.159 38.164C71.015 38.276 70.959 38.432 70.991 38.632C71.031 38.824 71.131 39.048 71.291 39.304L72.251 40.816C72.323 40.928 72.399 41.044 72.479 41.164C72.559 41.284 72.639 41.408 72.719 41.536C72.807 41.656 72.899 41.784 72.995 41.92H73.019C73.107 41.744 73.195 41.576 73.283 41.416C73.371 41.248 73.455 41.088 73.535 40.936L74.555 39.004C74.595 38.924 74.643 38.832 74.699 38.728C74.763 38.616 74.831 38.504 74.903 38.392C74.975 38.272 75.051 38.172 75.131 38.092C74.979 38.1 74.823 38.108 74.663 38.116C74.503 38.116 74.343 38.12 74.183 38.128V37.6H76.631V37.996C76.239 38.02 75.915 38.156 75.659 38.404C75.411 38.652 75.147 39.032 74.867 39.544C74.595 40.056 74.331 40.548 74.075 41.02C73.827 41.492 73.587 41.952 73.355 42.4C73.355 42.544 73.351 42.736 73.343 42.976C73.343 43.216 73.343 43.46 73.343 43.708C73.343 43.948 73.343 44.152 73.343 44.32C73.343 44.488 73.343 44.572 73.343 44.572C73.343 44.788 73.339 44.976 73.331 45.136C73.331 45.288 73.323 45.416 73.307 45.52C73.475 45.512 73.639 45.504 73.799 45.496C73.967 45.488 74.135 45.48 74.303 45.472V46H71.483ZM76.3863 46V45.604C76.6263 45.604 76.8103 45.54 76.9383 45.412C77.0663 45.284 77.1703 45.108 77.2503 44.884C77.3383 44.66 77.4383 44.4 77.5503 44.104L80.0223 37.372H80.3103L82.9863 44.2C83.0503 44.368 83.1223 44.584 83.2023 44.848C83.2823 45.112 83.3143 45.336 83.2983 45.52C83.4343 45.512 83.5703 45.504 83.7063 45.496C83.8423 45.488 83.9783 45.48 84.1143 45.472V46H81.3663V45.604C81.6703 45.596 81.8703 45.528 81.9663 45.4C82.0623 45.272 82.0983 45.12 82.0743 44.944C82.0503 44.768 82.0103 44.608 81.9543 44.464L81.5343 43.336L78.4143 43.408L77.9943 44.692C77.9383 44.884 77.8863 45.036 77.8383 45.148C77.7983 45.26 77.7503 45.384 77.6943 45.52C77.8543 45.512 78.0103 45.504 78.1623 45.496C78.3223 45.488 78.4783 45.48 78.6303 45.472V46H76.3863ZM78.5943 42.892H81.3663L80.5143 40.6C80.4263 40.352 80.3343 40.108 80.2383 39.868C80.1503 39.62 80.0623 39.372 79.9743 39.124H79.9503C79.8703 39.348 79.7863 39.572 79.6983 39.796C79.6183 40.02 79.5343 40.248 79.4463 40.48L78.5943 42.892ZM84.99 45.604C85.294 45.588 85.502 45.52 85.614 45.4C85.726 45.272 85.786 45.1 85.794 44.884C85.81 44.66 85.818 44.408 85.818 44.128V38.944C85.818 38.784 85.822 38.632 85.83 38.488C85.838 38.336 85.846 38.2 85.854 38.08C85.71 38.088 85.566 38.096 85.422 38.104C85.278 38.112 85.134 38.12 84.99 38.128V37.6C85.414 37.592 85.85 37.588 86.298 37.588C86.746 37.58 87.202 37.576 87.666 37.576C88.442 37.576 89.094 37.664 89.622 37.84C90.15 38.016 90.554 38.276 90.834 38.62C91.114 38.964 91.266 39.392 91.29 39.904C91.306 40.216 91.258 40.544 91.146 40.888C91.042 41.224 90.842 41.544 90.546 41.848C90.258 42.144 89.85 42.384 89.322 42.568C88.794 42.752 88.118 42.844 87.294 42.844C87.262 42.844 87.202 42.844 87.114 42.844C87.026 42.844 86.942 42.84 86.862 42.832V44.572C86.862 44.788 86.858 44.976 86.85 45.136C86.85 45.288 86.842 45.416 86.826 45.52C86.954 45.512 87.078 45.504 87.198 45.496C87.318 45.488 87.438 45.484 87.558 45.484C87.686 45.476 87.81 45.468 87.93 45.46V46H84.99V45.604ZM86.862 42.34C87.014 42.356 87.142 42.368 87.246 42.376C87.358 42.376 87.49 42.376 87.642 42.376C88.098 42.376 88.514 42.288 88.89 42.112C89.266 41.928 89.566 41.668 89.79 41.332C90.014 40.996 90.126 40.596 90.126 40.132C90.126 39.756 90.066 39.436 89.946 39.172C89.826 38.9 89.654 38.684 89.43 38.524C89.214 38.356 88.954 38.236 88.65 38.164C88.346 38.084 88.01 38.044 87.642 38.044C87.362 38.044 87.166 38.104 87.054 38.224C86.95 38.344 86.89 38.512 86.874 38.728C86.866 38.936 86.862 39.184 86.862 39.472V42.34ZM91.4852 46V45.604C91.7252 45.604 91.9092 45.54 92.0372 45.412C92.1652 45.284 92.2692 45.108 92.3492 44.884C92.4372 44.66 92.5372 44.4 92.6492 44.104L95.1212 37.372H95.4092L98.0852 44.2C98.1492 44.368 98.2212 44.584 98.3012 44.848C98.3812 45.112 98.4132 45.336 98.3972 45.52C98.5332 45.512 98.6692 45.504 98.8052 45.496C98.9412 45.488 99.0772 45.48 99.2132 45.472V46H96.4652V45.604C96.7692 45.596 96.9692 45.528 97.0652 45.4C97.1612 45.272 97.1972 45.12 97.1732 44.944C97.1492 44.768 97.1092 44.608 97.0532 44.464L96.6332 43.336L93.5132 43.408L93.0932 44.692C93.0372 44.884 92.9852 45.036 92.9372 45.148C92.8972 45.26 92.8492 45.384 92.7932 45.52C92.9532 45.512 93.1092 45.504 93.2612 45.496C93.4212 45.488 93.5772 45.48 93.7292 45.472V46H91.4852ZM93.6932 42.892H96.4652L95.6132 40.6C95.5252 40.352 95.4332 40.108 95.3372 39.868C95.2492 39.62 95.1612 39.372 95.0732 39.124H95.0492C94.9692 39.348 94.8852 39.572 94.7972 39.796C94.7172 40.02 94.6332 40.248 94.5452 40.48L93.6932 42.892ZM100.089 46V45.604C100.393 45.588 100.601 45.52 100.713 45.4C100.825 45.272 100.885 45.1 100.893 44.884C100.909 44.66 100.917 44.408 100.917 44.128V38.944C100.917 38.784 100.921 38.632 100.929 38.488C100.937 38.336 100.945 38.2 100.953 38.08C100.809 38.088 100.665 38.096 100.521 38.104C100.377 38.112 100.233 38.12 100.089 38.128V37.6C100.537 37.592 100.989 37.584 101.445 37.576C101.909 37.568 102.373 37.572 102.837 37.588C103.613 37.596 104.237 37.688 104.709 37.864C105.189 38.032 105.541 38.276 105.765 38.596C105.989 38.908 106.101 39.288 106.101 39.736C106.109 40.048 106.049 40.368 105.921 40.696C105.801 41.016 105.577 41.304 105.249 41.56C104.929 41.816 104.465 42.008 103.857 42.136C104.017 42.248 104.157 42.392 104.277 42.568C104.397 42.744 104.533 42.948 104.685 43.18L105.501 44.464C105.637 44.68 105.769 44.876 105.897 45.052C106.025 45.22 106.173 45.356 106.341 45.46C106.509 45.556 106.717 45.604 106.965 45.604V46H105.453C105.221 45.792 105.025 45.584 104.865 45.376C104.713 45.168 104.553 44.932 104.385 44.668L103.581 43.384C103.477 43.216 103.357 43.024 103.221 42.808C103.093 42.584 102.945 42.396 102.777 42.244C102.649 42.252 102.513 42.256 102.369 42.256C102.233 42.256 102.097 42.252 101.961 42.244V44.572C101.961 44.788 101.957 44.976 101.949 45.136C101.949 45.288 101.941 45.416 101.925 45.52C102.021 45.512 102.117 45.508 102.213 45.508C102.309 45.5 102.405 45.492 102.501 45.484C102.597 45.476 102.693 45.472 102.789 45.472V46H100.089ZM102.705 41.8C103.145 41.784 103.529 41.712 103.857 41.584C104.193 41.456 104.457 41.252 104.649 40.972C104.841 40.692 104.937 40.324 104.937 39.868C104.937 39.564 104.893 39.3 104.805 39.076C104.725 38.844 104.597 38.652 104.421 38.5C104.245 38.348 104.021 38.236 103.749 38.164C103.477 38.084 103.157 38.044 102.789 38.044C102.493 38.044 102.285 38.104 102.165 38.224C102.053 38.344 101.989 38.512 101.973 38.728C101.965 38.936 101.961 39.184 101.961 39.472V41.776C102.089 41.784 102.209 41.792 102.321 41.8C102.441 41.808 102.569 41.808 102.705 41.8ZM111.496 46V45.604C111.8 45.588 112.008 45.52 112.12 45.4C112.232 45.272 112.292 45.1 112.3 44.884C112.316 44.66 112.324 44.408 112.324 44.128V38.944C112.324 38.784 112.328 38.632 112.336 38.488C112.344 38.336 112.352 38.2 112.36 38.08C112.216 38.088 112.072 38.096 111.928 38.104C111.784 38.112 111.64 38.12 111.496 38.128V37.6H114.196V37.996C113.9 38.004 113.692 38.072 113.572 38.2C113.46 38.328 113.396 38.5 113.38 38.716C113.372 38.932 113.368 39.184 113.368 39.472V41.44H114.268L115.768 39.076C115.872 38.916 116 38.74 116.152 38.548C116.304 38.356 116.46 38.196 116.62 38.068C116.5 38.076 116.376 38.08 116.248 38.08C116.128 38.08 116.008 38.084 115.888 38.092V37.6H118.468V37.996C118.132 38.02 117.832 38.076 117.568 38.164C117.304 38.252 117.052 38.408 116.812 38.632C116.572 38.848 116.316 39.176 116.044 39.616L114.868 41.488C115.1 41.624 115.288 41.784 115.432 41.968C115.576 42.144 115.72 42.324 115.864 42.508L117.208 44.296C117.512 44.696 117.76 44.992 117.952 45.184C118.152 45.368 118.328 45.484 118.48 45.532C118.64 45.58 118.804 45.604 118.972 45.604V46H117.508C117.428 46 117.32 45.944 117.184 45.832C117.056 45.72 116.916 45.576 116.764 45.4C116.612 45.216 116.456 45.024 116.296 44.824L114.856 42.88C114.704 42.68 114.552 42.492 114.4 42.316C114.248 42.132 114.1 41.996 113.956 41.908L113.368 41.92V44.572C113.368 44.788 113.364 44.976 113.356 45.136C113.356 45.288 113.348 45.416 113.332 45.52C113.476 45.512 113.62 45.504 113.764 45.496C113.908 45.488 114.052 45.48 114.196 45.472V46H111.496ZM119.316 46V45.604C119.556 45.604 119.74 45.54 119.868 45.412C119.996 45.284 120.1 45.108 120.18 44.884C120.268 44.66 120.368 44.4 120.48 44.104L122.952 37.372H123.24L125.916 44.2C125.98 44.368 126.052 44.584 126.132 44.848C126.212 45.112 126.244 45.336 126.228 45.52C126.364 45.512 126.5 45.504 126.636 45.496C126.772 45.488 126.908 45.48 127.044 45.472V46H124.296V45.604C124.6 45.596 124.8 45.528 124.896 45.4C124.992 45.272 125.028 45.12 125.004 44.944C124.98 44.768 124.94 44.608 124.884 44.464L124.464 43.336L121.344 43.408L120.924 44.692C120.868 44.884 120.816 45.036 120.768 45.148C120.728 45.26 120.68 45.384 120.624 45.52C120.784 45.512 120.94 45.504 121.092 45.496C121.252 45.488 121.408 45.48 121.56 45.472V46H119.316ZM121.524 42.892H124.296L123.444 40.6C123.356 40.352 123.264 40.108 123.168 39.868C123.08 39.62 122.992 39.372 122.904 39.124H122.88C122.8 39.348 122.716 39.572 122.628 39.796C122.548 40.02 122.464 40.248 122.376 40.48L121.524 42.892ZM137.996 46.192L133.208 39.76C133.136 39.664 133.064 39.572 132.992 39.484C132.928 39.388 132.86 39.292 132.788 39.196H132.776L132.812 44.332C132.812 44.532 132.812 44.732 132.812 44.932C132.812 45.132 132.804 45.328 132.788 45.52C132.932 45.512 133.076 45.504 133.22 45.496C133.364 45.488 133.508 45.48 133.652 45.472V46H131.456V45.604C131.704 45.604 131.88 45.552 131.984 45.448C132.096 45.336 132.168 45.208 132.2 45.064C132.232 44.912 132.248 44.776 132.248 44.656L132.26 38.884C132.26 38.748 132.26 38.612 132.26 38.476C132.26 38.34 132.26 38.208 132.26 38.08C132.132 38.088 132 38.096 131.864 38.104C131.728 38.112 131.592 38.12 131.456 38.128V37.6H132.884L137.384 43.624C137.488 43.76 137.588 43.896 137.684 44.032C137.788 44.168 137.892 44.304 137.996 44.44H138.008L138.02 38.944C138.02 38.784 138.024 38.632 138.032 38.488C138.04 38.336 138.048 38.2 138.056 38.08C137.912 38.088 137.768 38.096 137.624 38.104C137.48 38.112 137.336 38.12 137.192 38.128V37.6H139.4V37.996C139.104 38.004 138.9 38.072 138.788 38.2C138.676 38.328 138.616 38.5 138.608 38.716C138.6 38.932 138.596 39.184 138.596 39.472L138.572 46.192H137.996ZM140.2 46V45.604C140.44 45.604 140.624 45.54 140.752 45.412C140.88 45.284 140.984 45.108 141.064 44.884C141.152 44.66 141.252 44.4 141.364 44.104L143.836 37.372H144.124L146.8 44.2C146.864 44.368 146.936 44.584 147.016 44.848C147.096 45.112 147.128 45.336 147.112 45.52C147.248 45.512 147.384 45.504 147.52 45.496C147.656 45.488 147.792 45.48 147.928 45.472V46H145.18V45.604C145.484 45.596 145.684 45.528 145.78 45.4C145.876 45.272 145.912 45.12 145.888 44.944C145.864 44.768 145.824 44.608 145.768 44.464L145.348 43.336L142.228 43.408L141.808 44.692C141.752 44.884 141.7 45.036 141.652 45.148C141.612 45.26 141.564 45.384 141.508 45.52C141.668 45.512 141.824 45.504 141.976 45.496C142.136 45.488 142.292 45.48 142.444 45.472V46H140.2ZM142.408 42.892H145.18L144.328 40.6C144.24 40.352 144.148 40.108 144.052 39.868C143.964 39.62 143.876 39.372 143.788 39.124H143.764C143.684 39.348 143.6 39.572 143.512 39.796C143.432 40.02 143.348 40.248 143.26 40.48L142.408 42.892ZM150.314 46V45.604C150.618 45.588 150.822 45.516 150.926 45.388C151.038 45.26 151.098 45.088 151.106 44.872C151.122 44.648 151.13 44.4 151.13 44.128L151.142 42.76L149.054 39.46C148.854 39.14 148.702 38.872 148.598 38.656C148.502 38.44 148.438 38.256 148.406 38.104C148.278 38.112 148.154 38.116 148.034 38.116C147.914 38.116 147.79 38.12 147.662 38.128V37.6H150.758V37.996C150.39 37.996 150.134 38.052 149.99 38.164C149.846 38.276 149.79 38.432 149.822 38.632C149.862 38.824 149.962 39.048 150.122 39.304L151.082 40.816C151.154 40.928 151.23 41.044 151.31 41.164C151.39 41.284 151.47 41.408 151.55 41.536C151.638 41.656 151.73 41.784 151.826 41.92H151.85C151.938 41.744 152.026 41.576 152.114 41.416C152.202 41.248 152.286 41.088 152.366 40.936L153.386 39.004C153.426 38.924 153.474 38.832 153.53 38.728C153.594 38.616 153.662 38.504 153.734 38.392C153.806 38.272 153.882 38.172 153.962 38.092C153.81 38.1 153.654 38.108 153.494 38.116C153.334 38.116 153.174 38.12 153.014 38.128V37.6H155.462V37.996C155.07 38.02 154.746 38.156 154.49 38.404C154.242 38.652 153.978 39.032 153.698 39.544C153.426 40.056 153.162 40.548 152.906 41.02C152.658 41.492 152.418 41.952 152.186 42.4C152.186 42.544 152.182 42.736 152.174 42.976C152.174 43.216 152.174 43.46 152.174 43.708C152.174 43.948 152.174 44.152 152.174 44.32C152.174 44.488 152.174 44.572 152.174 44.572C152.174 44.788 152.17 44.976 152.162 45.136C152.162 45.288 152.154 45.416 152.138 45.52C152.306 45.512 152.47 45.504 152.63 45.496C152.798 45.488 152.966 45.48 153.134 45.472V46H150.314ZM155.217 46V45.604C155.457 45.604 155.641 45.54 155.769 45.412C155.897 45.284 156.001 45.108 156.081 44.884C156.169 44.66 156.269 44.4 156.381 44.104L158.853 37.372H159.141L161.817 44.2C161.881 44.368 161.953 44.584 162.033 44.848C162.113 45.112 162.145 45.336 162.129 45.52C162.265 45.512 162.401 45.504 162.537 45.496C162.673 45.488 162.809 45.48 162.945 45.472V46H160.197V45.604C160.501 45.596 160.701 45.528 160.797 45.4C160.893 45.272 160.929 45.12 160.905 44.944C160.881 44.768 160.841 44.608 160.785 44.464L160.365 43.336L157.245 43.408L156.825 44.692C156.769 44.884 156.717 45.036 156.669 45.148C156.629 45.26 156.581 45.384 156.525 45.52C156.685 45.512 156.841 45.504 156.993 45.496C157.153 45.488 157.309 45.48 157.461 45.472V46H155.217ZM157.425 42.892H160.197L159.345 40.6C159.257 40.352 159.165 40.108 159.069 39.868C158.981 39.62 158.893 39.372 158.805 39.124H158.781C158.701 39.348 158.617 39.572 158.529 39.796C158.449 40.02 158.365 40.248 158.277 40.48L157.425 42.892ZM173.621 40.132C173.613 39.66 173.565 39.268 173.477 38.956C173.389 38.644 173.233 38.412 173.009 38.26C172.793 38.1 172.477 38.024 172.061 38.032H171.041L171.029 44.572C171.029 44.788 171.025 44.976 171.017 45.136C171.017 45.288 171.009 45.416 170.993 45.52C171.161 45.512 171.325 45.504 171.485 45.496C171.653 45.488 171.821 45.48 171.989 45.472V46H169.169V45.604C169.473 45.588 169.677 45.516 169.781 45.388C169.893 45.26 169.953 45.088 169.961 44.872C169.977 44.648 169.985 44.4 169.985 44.128L169.997 38.044L168.761 38.056C168.257 38.056 167.901 38.224 167.693 38.56C167.485 38.896 167.381 39.42 167.381 40.132H166.937L167.009 37.6H174.005L174.077 40.132H173.621ZM174.344 46V45.604C174.584 45.604 174.768 45.54 174.896 45.412C175.024 45.284 175.128 45.108 175.208 44.884C175.296 44.66 175.396 44.4 175.508 44.104L177.98 37.372H178.268L180.944 44.2C181.008 44.368 181.08 44.584 181.16 44.848C181.24 45.112 181.272 45.336 181.256 45.52C181.392 45.512 181.528 45.504 181.664 45.496C181.8 45.488 181.936 45.48 182.072 45.472V46H179.324V45.604C179.628 45.596 179.828 45.528 179.924 45.4C180.02 45.272 180.056 45.12 180.032 44.944C180.008 44.768 179.968 44.608 179.912 44.464L179.492 43.336L176.372 43.408L175.952 44.692C175.896 44.884 175.844 45.036 175.796 45.148C175.756 45.26 175.708 45.384 175.652 45.52C175.812 45.512 175.968 45.504 176.12 45.496C176.28 45.488 176.436 45.48 176.588 45.472V46H174.344ZM176.552 42.892H179.324L178.472 40.6C178.384 40.352 178.292 40.108 178.196 39.868C178.108 39.62 178.02 39.372 177.932 39.124H177.908C177.828 39.348 177.744 39.572 177.656 39.796C177.576 40.02 177.492 40.248 177.404 40.48L176.552 42.892ZM182.948 46V45.604C183.252 45.588 183.46 45.52 183.572 45.4C183.684 45.272 183.744 45.1 183.752 44.884C183.768 44.66 183.776 44.408 183.776 44.128V38.944C183.776 38.784 183.78 38.632 183.788 38.488C183.796 38.336 183.804 38.2 183.812 38.08C183.668 38.088 183.524 38.096 183.38 38.104C183.236 38.112 183.092 38.12 182.948 38.128V37.6C183.396 37.592 183.848 37.584 184.304 37.576C184.768 37.568 185.232 37.572 185.696 37.588C186.472 37.596 187.096 37.688 187.568 37.864C188.048 38.032 188.4 38.276 188.624 38.596C188.848 38.908 188.96 39.288 188.96 39.736C188.968 40.048 188.908 40.368 188.78 40.696C188.66 41.016 188.436 41.304 188.108 41.56C187.788 41.816 187.324 42.008 186.716 42.136C186.876 42.248 187.016 42.392 187.136 42.568C187.256 42.744 187.392 42.948 187.544 43.18L188.36 44.464C188.496 44.68 188.628 44.876 188.756 45.052C188.884 45.22 189.032 45.356 189.2 45.46C189.368 45.556 189.576 45.604 189.824 45.604V46H188.312C188.08 45.792 187.884 45.584 187.724 45.376C187.572 45.168 187.412 44.932 187.244 44.668L186.44 43.384C186.336 43.216 186.216 43.024 186.08 42.808C185.952 42.584 185.804 42.396 185.636 42.244C185.508 42.252 185.372 42.256 185.228 42.256C185.092 42.256 184.956 42.252 184.82 42.244V44.572C184.82 44.788 184.816 44.976 184.808 45.136C184.808 45.288 184.8 45.416 184.784 45.52C184.88 45.512 184.976 45.508 185.072 45.508C185.168 45.5 185.264 45.492 185.36 45.484C185.456 45.476 185.552 45.472 185.648 45.472V46H182.948ZM185.564 41.8C186.004 41.784 186.388 41.712 186.716 41.584C187.052 41.456 187.316 41.252 187.508 40.972C187.7 40.692 187.796 40.324 187.796 39.868C187.796 39.564 187.752 39.3 187.664 39.076C187.584 38.844 187.456 38.652 187.28 38.5C187.104 38.348 186.88 38.236 186.608 38.164C186.336 38.084 186.016 38.044 185.648 38.044C185.352 38.044 185.144 38.104 185.024 38.224C184.912 38.344 184.848 38.512 184.832 38.728C184.824 38.936 184.82 39.184 184.82 39.472V41.776C184.948 41.784 185.068 41.792 185.18 41.8C185.3 41.808 185.428 41.808 185.564 41.8ZM195.019 42.892C195.019 42.54 194.971 42.288 194.875 42.136C194.779 41.984 194.627 41.892 194.419 41.86C194.211 41.828 193.935 41.82 193.591 41.836L192.715 41.872V44.62C192.715 44.836 192.711 45.02 192.703 45.172C192.703 45.324 192.695 45.452 192.679 45.556L194.971 45.52C195.323 45.512 195.627 45.456 195.883 45.352C196.139 45.24 196.339 45.048 196.483 44.776C196.627 44.504 196.699 44.132 196.699 43.66H197.107L197.035 46H190.843V45.604C191.147 45.588 191.355 45.52 191.467 45.4C191.579 45.272 191.639 45.1 191.647 44.884C191.663 44.66 191.671 44.408 191.671 44.128V38.944C191.671 38.784 191.675 38.632 191.683 38.488C191.691 38.336 191.699 38.2 191.707 38.08C191.563 38.088 191.419 38.096 191.275 38.104C191.131 38.112 190.987 38.12 190.843 38.128V37.6H196.615L196.675 39.7H196.279C196.279 39.228 196.207 38.872 196.063 38.632C195.919 38.384 195.723 38.22 195.475 38.14C195.235 38.052 194.963 38.012 194.659 38.02L193.627 38.044C193.331 38.052 193.119 38.108 192.991 38.212C192.863 38.316 192.783 38.472 192.751 38.68C192.727 38.88 192.715 39.144 192.715 39.472V41.392L194.971 41.404L194.887 40.372H195.415V42.892H195.019ZM202.844 42.892C202.844 42.54 202.796 42.288 202.7 42.136C202.604 41.984 202.452 41.892 202.244 41.86C202.036 41.828 201.76 41.82 201.416 41.836L200.54 41.872V44.62C200.54 44.836 200.536 45.02 200.528 45.172C200.528 45.324 200.52 45.452 200.504 45.556L202.796 45.52C203.148 45.512 203.452 45.456 203.708 45.352C203.964 45.24 204.164 45.048 204.308 44.776C204.452 44.504 204.524 44.132 204.524 43.66H204.932L204.86 46H198.668V45.604C198.972 45.588 199.18 45.52 199.292 45.4C199.404 45.272 199.464 45.1 199.472 44.884C199.488 44.66 199.496 44.408 199.496 44.128V38.944C199.496 38.784 199.5 38.632 199.508 38.488C199.516 38.336 199.524 38.2 199.532 38.08C199.388 38.088 199.244 38.096 199.1 38.104C198.956 38.112 198.812 38.12 198.668 38.128V37.6H204.44L204.5 39.7H204.104C204.104 39.228 204.032 38.872 203.888 38.632C203.744 38.384 203.548 38.22 203.3 38.14C203.06 38.052 202.788 38.012 202.484 38.02L201.452 38.044C201.156 38.052 200.944 38.108 200.816 38.212C200.688 38.316 200.608 38.472 200.576 38.68C200.552 38.88 200.54 39.144 200.54 39.472V41.392L202.796 41.404L202.712 40.372H203.24V42.892H202.844ZM206.493 46V45.604C206.797 45.588 207.005 45.52 207.117 45.4C207.229 45.272 207.289 45.1 207.297 44.884C207.313 44.66 207.321 44.408 207.321 44.128V38.944C207.321 38.784 207.325 38.632 207.333 38.488C207.341 38.336 207.349 38.2 207.357 38.08C207.213 38.088 207.069 38.096 206.925 38.104C206.781 38.112 206.637 38.12 206.493 38.128V37.6H209.193V37.996C208.897 38.004 208.689 38.072 208.569 38.2C208.457 38.328 208.393 38.5 208.377 38.716C208.369 38.932 208.365 39.184 208.365 39.472V41.44H209.265L210.765 39.076C210.869 38.916 210.997 38.74 211.149 38.548C211.301 38.356 211.457 38.196 211.617 38.068C211.497 38.076 211.373 38.08 211.245 38.08C211.125 38.08 211.005 38.084 210.885 38.092V37.6H213.465V37.996C213.129 38.02 212.829 38.076 212.565 38.164C212.301 38.252 212.049 38.408 211.809 38.632C211.569 38.848 211.313 39.176 211.041 39.616L209.865 41.488C210.097 41.624 210.285 41.784 210.429 41.968C210.573 42.144 210.717 42.324 210.861 42.508L212.205 44.296C212.509 44.696 212.757 44.992 212.949 45.184C213.149 45.368 213.325 45.484 213.477 45.532C213.637 45.58 213.801 45.604 213.969 45.604V46H212.505C212.425 46 212.317 45.944 212.181 45.832C212.053 45.72 211.913 45.576 211.761 45.4C211.609 45.216 211.453 45.024 211.293 44.824L209.853 42.88C209.701 42.68 209.549 42.492 209.397 42.316C209.245 42.132 209.097 41.996 208.953 41.908L208.365 41.92V44.572C208.365 44.788 208.361 44.976 208.353 45.136C208.353 45.288 208.345 45.416 208.329 45.52C208.473 45.512 208.617 45.504 208.761 45.496C208.905 45.488 209.049 45.48 209.193 45.472V46H206.493ZM214.312 46V45.604C214.552 45.604 214.736 45.54 214.864 45.412C214.992 45.284 215.096 45.108 215.176 44.884C215.264 44.66 215.364 44.4 215.476 44.104L217.948 37.372H218.236L220.912 44.2C220.976 44.368 221.048 44.584 221.128 44.848C221.208 45.112 221.24 45.336 221.224 45.52C221.36 45.512 221.496 45.504 221.632 45.496C221.768 45.488 221.904 45.48 222.04 45.472V46H219.292V45.604C219.596 45.596 219.796 45.528 219.892 45.4C219.988 45.272 220.024 45.12 220 44.944C219.976 44.768 219.936 44.608 219.88 44.464L219.46 43.336L216.34 43.408L215.92 44.692C215.864 44.884 215.812 45.036 215.764 45.148C215.724 45.26 215.676 45.384 215.62 45.52C215.78 45.512 215.936 45.504 216.088 45.496C216.248 45.488 216.404 45.48 216.556 45.472V46H214.312ZM216.52 42.892H219.292L218.44 40.6C218.352 40.352 218.26 40.108 218.164 39.868C218.076 39.62 217.988 39.372 217.9 39.124H217.876C217.796 39.348 217.712 39.572 217.624 39.796C217.544 40.02 217.46 40.248 217.372 40.48L216.52 42.892Z" fill="#161515"/>
</svg>
