<svg width="41" height="41" viewBox="0 0 41 41" fill="none" xmlns="http://www.w3.org/2000/svg">
<rect x="0.225" y="0.475" width="40.05" height="40.05" rx="20.025" stroke="#161515" stroke-width="0.45"/>
<g clip-path="url(#clip0_25_765)">
<path d="M20.2528 9.25H20.2472C14.0442 9.25 9.00001 14.2956 9.00001 20.5C8.99616 22.8695 9.74624 25.1789 11.1417 27.0939L9.7397 31.2733L14.0639 29.8909C15.8982 31.1079 18.0516 31.7547 20.2528 31.75C26.4558 31.75 31.5 26.703 31.5 20.5C31.5 14.297 26.4558 9.25 20.2528 9.25ZM26.7989 25.1364C26.5275 25.9028 25.4503 26.5384 24.5911 26.7241C24.0033 26.8492 23.2355 26.9491 20.6508 25.8775C17.3447 24.5078 15.2156 21.1483 15.0497 20.9303C14.8908 20.7123 13.7138 19.1514 13.7138 17.537C13.7138 15.9227 14.5336 15.1366 14.8641 14.7991C15.1355 14.522 15.5841 14.3955 16.0144 14.3955C16.1536 14.3955 16.2788 14.4025 16.3913 14.4081C16.7217 14.4222 16.8877 14.4419 17.1056 14.9636C17.377 15.6175 18.038 17.2319 18.1167 17.3978C18.1969 17.5638 18.277 17.7888 18.1645 18.0067C18.0591 18.2317 17.9663 18.3316 17.8003 18.5228C17.6344 18.7141 17.4769 18.8603 17.311 19.0656C17.1591 19.2442 16.9875 19.4355 17.1788 19.7659C17.37 20.0894 18.031 21.168 19.0041 22.0342C20.2599 23.1522 21.278 23.5094 21.6422 23.6613C21.9136 23.7738 22.237 23.747 22.4353 23.5361C22.687 23.2647 22.9978 22.8147 23.3142 22.3717C23.5392 22.0539 23.8233 22.0145 24.1214 22.127C24.4252 22.2325 26.0325 23.027 26.363 23.1916C26.6935 23.3575 26.9114 23.4363 26.9916 23.5755C27.0703 23.7147 27.0703 24.3686 26.7989 25.1364Z" fill="#161515"/>
</g>
<defs>
<clipPath id="clip0_25_765">
<rect width="22.5" height="22.5" fill="white" transform="translate(9 9.25)"/>
</clipPath>
</defs>
</svg>
